<?xml version="1.0" encoding="utf-8"?>
<svg viewBox="0 0 850.53801 740.82953" xmlns="http://www.w3.org/2000/svg">
  <path d="M 629.826 353.49 C 629.9 420.159 606.34 484.263 564.099 532.326 C 561.552 535.243 558.937 538.089 556.253 540.864 C 552.163 545.119 547.937 549.209 543.573 553.133 C 502.748 589.922 451.783 610.595 398.899 611.817 C 397.137 611.861 395.368 611.883 393.593 611.883 C 351.417 611.883 298.37 587.243 250.23 553.133 C 246.247 550.312 242.299 547.424 238.387 544.472 C 236.559 543.104 234.739 541.718 232.928 540.312 C 214.361 525.972 196.737 510.224 180.187 493.184 C 169.35 482.061 159.189 470.176 149.767 457.606 C 112.777 407.701 104.619 362.733 157.353 353.49 C 163.597 352.399 169.657 351.233 175.532 349.992 C 184.043 348.203 192.189 346.27 199.968 344.195 C 210.447 341.41 220.293 338.389 229.504 335.133 C 232.603 334.043 235.63 332.93 238.587 331.795 C 282.299 315.003 311.555 293.104 331.47 269.344 C 334.847 265.323 337.961 261.252 340.812 257.133 C 345.173 250.864 349.134 244.274 352.667 237.41 C 357.544 227.872 361.641 217.882 364.908 207.555 L 365.088 206.988 C 380.933 156.995 376.112 110.624 393.593 95.104 C 468.317 28.755 561.346 123.243 605.011 234.668 C 607.212 240.283 609.282 245.931 611.222 251.613 C 612.093 254.152 612.933 256.695 613.742 259.243 C 615.869 265.883 617.8 272.539 619.533 279.213 C 620.198 281.759 620.832 284.302 621.435 286.843 C 622.08 289.584 622.698 292.319 623.27 295.053 C 627.519 315.075 629.826 334.821 629.826 353.49 Z" style="fill: rgb(51, 51, 51);"/>
  <path d="M 398.899 611.817 C 397.137 611.861 395.368 611.883 393.593 611.883 C 351.417 611.883 298.37 587.243 250.23 553.133 C 246.247 550.312 242.299 547.424 238.387 544.472 L 241.818 521.635 L 345.686 506.552 L 397.815 550.152 Z" style="fill: rgb(68, 68, 74);"/>
  <path d="M 403.899 204.043 L 389.098 204.043 C 388.144 204.043 387.37 204.889 387.37 205.933 L 387.37 222.13 C 387.37 223.172 388.145 224.016 389.098 224.013 L 403.899 224.013 C 404.852 224.014 405.625 223.171 405.628 222.13 L 405.628 205.933 C 405.625 204.89 404.853 204.046 403.899 204.043 Z" fill="#fff" style=""/>
  <path d="M 403.899 231.643 L 389.098 231.643 C 388.144 231.643 387.37 232.489 387.37 233.533 L 387.37 249.73 C 387.37 250.773 388.145 251.616 389.098 251.613 L 403.899 251.613 C 404.852 251.614 405.625 250.772 405.628 249.73 L 405.628 233.533 C 405.625 232.49 404.853 231.646 403.899 231.643 Z" fill="#e6e6e6" style=""/>
  <path d="M 403.899 259.243 L 389.098 259.243 C 388.144 259.243 387.37 260.089 387.37 261.134 L 387.37 277.323 C 387.368 278.368 388.143 279.216 389.098 279.213 L 403.899 279.213 C 404.854 279.213 405.628 278.367 405.628 277.323 L 405.628 261.134 C 405.625 260.09 404.853 259.246 403.899 259.243 Z" fill="#e6e6e6" style=""/>
  <path d="M 405.602 288.399 C 405.449 287.5 404.735 286.847 403.899 286.842 L 389.098 286.842 C 388.144 286.843 387.37 287.689 387.37 288.733 L 387.37 304.923 C 387.368 305.968 388.143 306.816 389.098 306.813 L 403.899 306.813 C 404.854 306.813 405.628 305.967 405.628 304.923 L 405.628 288.733 C 405.63 288.621 405.621 288.509 405.602 288.399 Z" fill="#e6e6e6" style=""/>
  <path d="M 404.571 314.588 C 404.358 314.492 404.13 314.442 403.899 314.443 L 389.098 314.443 C 388.143 314.44 387.368 315.288 387.37 316.333 L 387.37 332.523 C 387.365 333.569 388.142 334.418 389.098 334.414 L 403.899 334.414 C 404.854 334.413 405.628 333.567 405.628 332.523 L 405.628 316.333 C 405.627 315.573 405.211 314.886 404.571 314.588 Z" fill="#e6e6e6" style=""/>
  <path d="M 434.991 204.043 L 420.19 204.043 C 419.235 204.043 418.462 204.889 418.461 205.933 L 418.461 222.13 C 418.462 223.172 419.237 224.016 420.19 224.013 L 434.991 224.013 C 435.943 224.014 436.717 223.171 436.72 222.13 L 436.72 205.933 C 436.717 204.89 435.945 204.046 434.991 204.043 Z" fill="#e6e6e6" style=""/>
  <path d="M 434.991 231.643 L 420.19 231.643 C 419.235 231.643 418.462 232.489 418.461 233.533 L 418.461 249.73 C 418.462 250.773 419.237 251.616 420.19 251.613 L 434.991 251.613 C 435.943 251.614 436.717 250.772 436.72 249.73 L 436.72 233.533 C 436.717 232.49 435.945 231.646 434.991 231.643 Z" style="fill: rgb(21, 255, 0);"/>
  <path d="M 434.991 259.243 L 420.19 259.243 C 419.235 259.243 418.462 260.089 418.461 261.134 L 418.461 277.323 C 418.459 278.368 419.234 279.216 420.19 279.213 L 434.991 279.213 C 435.946 279.213 436.719 278.367 436.72 277.323 L 436.72 261.134 C 436.717 260.09 435.945 259.246 434.991 259.243 Z" style="fill: rgb(21, 255, 0);"/>
  <path d="M 434.991 286.842 L 420.19 286.842 C 419.447 286.843 418.787 287.365 418.554 288.137 C 418.493 288.329 418.461 288.53 418.461 288.733 L 418.461 304.923 C 418.459 305.968 419.234 306.816 420.19 306.813 L 434.991 306.813 C 435.946 306.813 436.719 305.967 436.72 304.923 L 436.72 288.733 C 436.717 287.69 435.945 286.846 434.991 286.842 Z" style="fill: rgb(21, 255, 0);"/>
  <path d="M 434.991 314.443 L 420.19 314.443 C 419.234 314.44 418.459 315.288 418.461 316.333 L 418.461 332.523 C 418.459 333.568 419.234 334.416 420.19 334.414 L 434.991 334.414 C 435.946 334.413 436.719 333.567 436.72 332.523 L 436.72 316.333 C 436.719 315.289 435.946 314.443 434.991 314.443 Z" fill="#e6e6e6" style=""/>
  <path d="M 466.083 204.043 L 451.282 204.043 C 450.327 204.043 449.553 204.889 449.553 205.933 L 449.553 222.13 C 449.554 223.172 450.328 224.016 451.282 224.013 L 466.083 224.013 C 467.035 224.014 467.808 223.171 467.812 222.13 L 467.812 205.933 C 467.809 204.89 467.036 204.046 466.083 204.043 Z" style="fill: rgb(112, 255, 99);"/>
  <path d="M 466.083 231.643 L 451.282 231.643 C 450.327 231.643 449.553 232.489 449.553 233.533 L 449.553 249.73 C 449.554 250.773 450.328 251.616 451.282 251.613 L 466.083 251.613 C 467.035 251.614 467.808 250.772 467.812 249.73 L 467.812 233.533 C 467.809 232.49 467.036 231.646 466.083 231.643 Z" style="fill: rgba(21, 255, 0, 0.52);"/>
  <path d="M 466.083 259.243 L 451.282 259.243 C 450.327 259.243 449.553 260.089 449.553 261.134 L 449.553 277.323 C 449.551 278.368 450.326 279.216 451.282 279.213 L 466.083 279.213 C 467.037 279.213 467.811 278.367 467.812 277.323 L 467.812 261.134 C 467.809 260.09 467.036 259.246 466.083 259.243 Z" fill="#e6e6e6" style=""/>
  <path d="M 466.083 286.842 L 451.282 286.842 C 450.327 286.843 449.553 287.689 449.553 288.733 L 449.553 304.923 C 449.551 305.968 450.326 306.816 451.282 306.813 L 466.083 306.813 C 467.037 306.813 467.811 305.967 467.812 304.923 L 467.812 288.733 C 467.809 287.69 467.036 286.846 466.083 286.842 Z" style="fill: rgb(21, 255, 0);"/>
  <path d="M 466.083 314.443 L 451.282 314.443 C 450.326 314.44 449.551 315.288 449.553 316.333 L 449.553 332.523 C 449.551 333.568 450.326 334.416 451.282 334.414 L 466.083 334.414 C 467.037 334.413 467.811 333.567 467.812 332.523 L 467.812 316.333 C 467.811 315.289 467.037 314.443 466.083 314.443 Z" style="fill: rgba(21, 255, 0, 0.5);"/>
  <path d="M 497.174 204.043 L 482.373 204.043 C 481.419 204.043 480.645 204.889 480.645 205.933 L 480.645 222.13 C 480.646 223.172 481.42 224.016 482.373 224.013 L 497.174 224.013 C 498.127 224.014 498.9 223.171 498.903 222.13 L 498.903 205.933 C 498.9 204.89 498.128 204.046 497.174 204.043 Z" style="fill: rgb(21, 255, 0);"/>
  <path d="M 497.174 231.643 L 482.373 231.643 C 481.419 231.643 480.645 232.489 480.645 233.533 L 480.645 249.73 C 480.646 250.773 481.42 251.616 482.373 251.613 L 497.174 251.613 C 498.127 251.614 498.9 250.772 498.903 249.73 L 498.903 233.533 C 498.901 232.49 498.128 231.646 497.174 231.643 Z" fill="#fff" style=""/>
  <path d="M 497.174 259.243 L 482.373 259.243 C 481.419 259.243 480.645 260.089 480.645 261.134 L 480.645 277.323 C 480.643 278.368 481.418 279.216 482.373 279.213 L 497.174 279.213 C 498.129 279.213 498.903 278.367 498.903 277.323 L 498.903 261.134 C 498.901 260.09 498.128 259.246 497.174 259.243 Z" fill="#fff" style=""/>
  <path d="M 497.174 286.842 L 482.373 286.842 C 481.419 286.843 480.645 287.689 480.645 288.733 L 480.645 304.923 C 480.643 305.968 481.418 306.816 482.373 306.813 L 497.174 306.813 C 498.129 306.813 498.903 305.967 498.903 304.923 L 498.903 288.733 C 498.901 287.69 498.128 286.846 497.174 286.842 Z" fill="#e6e6e6" style=""/>
  <path d="M 497.174 314.443 L 482.373 314.443 C 481.418 314.44 480.643 315.288 480.645 316.333 L 480.645 332.523 C 480.643 333.568 481.418 334.416 482.373 334.414 L 497.174 334.414 C 498.129 334.413 498.903 333.567 498.903 332.523 L 498.903 316.333 C 498.903 315.289 498.129 314.443 497.174 314.443 Z" style="fill: rgb(21, 255, 0);"/>
  <path d="M 528.266 204.043 L 513.458 204.043 C 512.506 204.046 511.736 204.892 511.736 205.933 L 511.736 222.13 C 511.736 223.17 512.507 224.013 513.458 224.013 L 528.266 224.013 C 529.219 224.014 529.992 223.171 529.995 222.13 L 529.995 205.933 C 529.992 204.89 529.22 204.046 528.266 204.043 Z" fill="#fff" style=""/>
  <path d="M 528.266 231.643 L 513.458 231.643 C 512.506 231.646 511.736 232.492 511.736 233.533 L 511.736 249.73 C 511.736 250.77 512.507 251.613 513.458 251.613 L 528.266 251.613 C 529.219 251.614 529.992 250.772 529.995 249.73 L 529.995 233.533 C 529.992 232.49 529.22 231.646 528.266 231.643 Z" fill="#fff" style=""/>
  <path d="M 528.266 259.243 L 513.458 259.243 C 512.506 259.246 511.736 260.092 511.736 261.134 L 511.736 277.323 C 511.734 278.365 512.505 279.212 513.458 279.213 L 528.266 279.213 C 529.221 279.213 529.995 278.367 529.995 277.323 L 529.995 261.134 C 529.992 260.09 529.22 259.246 528.266 259.243 Z" fill="#fff" style=""/>
  <path d="M 528.266 286.842 L 513.458 286.842 C 512.506 286.846 511.736 287.692 511.736 288.733 L 511.736 304.923 C 511.734 305.965 512.505 306.812 513.458 306.813 L 528.266 306.813 C 529.221 306.813 529.995 305.967 529.995 304.923 L 529.995 288.733 C 529.992 287.69 529.22 286.846 528.266 286.842 Z" style="fill: rgba(21, 255, 0, 0.42);"/>
  <path d="M 528.266 314.443 L 513.458 314.443 C 512.505 314.444 511.734 315.291 511.736 316.333 L 511.736 332.523 C 511.734 333.565 512.505 334.412 513.458 334.414 L 528.266 334.414 C 529.221 334.413 529.995 333.567 529.995 332.523 L 529.995 316.333 C 529.995 315.289 529.221 314.443 528.266 314.443 Z" fill="#e6e6e6" style=""/>
  <path d="M 559.358 204.043 L 544.55 204.043 C 543.598 204.046 542.828 204.892 542.828 205.933 L 542.828 222.13 C 542.828 223.17 543.599 224.013 544.55 224.013 L 559.358 224.013 C 560.31 224.014 561.083 223.171 561.087 222.13 L 561.087 205.933 C 561.084 204.89 560.311 204.046 559.358 204.043 Z" fill="#fff" style=""/>
  <path d="M 559.358 231.643 L 544.55 231.643 C 543.598 231.646 542.828 232.492 542.828 233.533 L 542.828 249.73 C 542.828 250.77 543.599 251.613 544.55 251.613 L 559.358 251.613 C 560.31 251.614 561.083 250.771 561.087 249.73 L 561.087 233.533 C 561.084 232.49 560.312 231.646 559.358 231.643 Z" fill="#fff" style=""/>
  <path d="M 559.358 259.243 L 544.55 259.243 C 543.598 259.246 542.828 260.092 542.828 261.134 L 542.828 277.323 C 542.825 278.365 543.597 279.212 544.55 279.213 L 559.358 279.213 C 560.312 279.213 561.086 278.367 561.087 277.323 L 561.087 261.134 C 561.084 260.09 560.312 259.246 559.358 259.243 Z" style="fill: rgb(21, 255, 0);"/>
  <path d="M 559.358 286.842 L 544.55 286.842 C 543.598 286.846 542.828 287.692 542.828 288.733 L 542.828 304.923 C 542.825 305.965 543.597 306.812 544.55 306.813 L 559.358 306.813 C 560.312 306.813 561.086 305.967 561.087 304.923 L 561.087 288.733 C 561.084 287.69 560.312 286.846 559.358 286.842 Z" fill="#e6e6e6" style=""/>
  <path d="M 559.358 314.443 L 544.55 314.443 C 543.597 314.444 542.825 315.291 542.828 316.333 L 542.828 332.523 C 542.825 333.565 543.597 334.412 544.55 334.414 L 559.358 334.414 C 560.312 334.413 561.086 333.567 561.087 332.523 L 561.087 316.333 C 561.086 315.289 560.312 314.443 559.358 314.443 Z" fill="#fff" style=""/>
  <path d="M 590.45 204.043 L 575.642 204.043 C 574.689 204.046 573.919 204.892 573.92 205.933 L 573.92 222.13 C 573.92 223.17 574.691 224.013 575.642 224.013 L 590.45 224.013 C 591.402 224.014 592.175 223.171 592.178 222.13 L 592.178 205.933 C 592.176 204.89 591.403 204.046 590.45 204.043 Z" style="fill: rgb(21, 255, 0);"/>
  <path d="M 590.45 231.643 L 575.642 231.643 C 574.689 231.646 573.919 232.492 573.92 233.533 L 573.92 249.73 C 573.92 250.77 574.691 251.613 575.642 251.613 L 590.45 251.613 C 591.402 251.614 592.175 250.771 592.178 249.73 L 592.178 233.533 C 592.176 232.49 591.403 231.646 590.45 231.643 Z" style="fill: rgba(21, 255, 0, 0.68);"/>
  <path d="M 590.45 259.243 L 575.642 259.243 C 574.689 259.246 573.919 260.092 573.92 261.134 L 573.92 277.323 C 573.917 278.365 574.688 279.212 575.642 279.213 L 590.45 279.213 C 591.404 279.213 592.178 278.367 592.178 277.323 L 592.178 261.134 C 592.176 260.09 591.403 259.246 590.45 259.243 Z" fill="#e6e6e6" style=""/>
  <path d="M 590.45 286.842 L 575.642 286.842 C 574.689 286.846 573.919 287.692 573.92 288.733 L 573.92 304.923 C 573.917 305.965 574.688 306.812 575.642 306.813 L 590.45 306.813 C 591.404 306.813 592.178 305.967 592.178 304.923 L 592.178 288.733 C 592.176 287.69 591.403 286.846 590.45 286.842 Z" fill="#fff" style=""/>
  <path d="M 590.45 314.443 L 575.642 314.443 C 574.688 314.444 573.917 315.291 573.92 316.333 L 573.92 332.523 C 573.917 333.565 574.688 334.412 575.642 334.414 L 590.45 334.414 C 591.404 334.413 592.178 333.567 592.178 332.523 L 592.178 316.333 C 592.178 315.289 591.404 314.443 590.45 314.443 Z" style="fill: rgba(21, 255, 0, 0.69);"/>
  <path d="M 621.541 204.043 L 606.733 204.043 C 605.781 204.046 605.011 204.892 605.011 205.933 L 605.011 222.13 C 605.012 223.17 605.782 224.013 606.733 224.013 L 621.541 224.013 C 622.494 224.014 623.267 223.171 623.27 222.13 L 623.27 205.933 C 623.267 204.89 622.495 204.046 621.541 204.043 Z" style="fill: rgb(21, 255, 0);"/>
  <path d="M 621.541 231.643 L 606.733 231.643 C 605.781 231.646 605.011 232.492 605.011 233.533 L 605.011 249.73 C 605.012 250.77 605.782 251.613 606.733 251.613 L 621.541 251.613 C 622.494 251.614 623.267 250.771 623.27 249.73 L 623.27 233.533 C 623.267 232.49 622.495 231.646 621.541 231.643 Z" style="fill: rgb(21, 255, 0);"/>
  <path d="M 621.541 259.243 L 606.733 259.243 C 605.781 259.246 605.011 260.092 605.011 261.134 L 605.011 277.323 C 605.009 278.365 605.78 279.212 606.733 279.213 L 621.541 279.213 C 622.496 279.213 623.27 278.367 623.27 277.323 L 623.27 261.134 C 623.267 260.09 622.495 259.246 621.541 259.243 Z" fill="#e6e6e6" style=""/>
  <path d="M 621.541 286.842 L 606.733 286.842 C 605.781 286.846 605.011 287.692 605.011 288.733 L 605.011 304.923 C 605.009 305.965 605.78 306.812 606.733 306.813 L 621.541 306.813 C 622.496 306.813 623.27 305.967 623.27 304.923 L 623.27 288.733 C 623.267 287.69 622.495 286.846 621.541 286.842 Z" style="fill: rgb(21, 255, 0);"/>
  <path d="M 621.541 314.443 L 606.733 314.443 C 605.78 314.444 605.009 315.291 605.011 316.333 L 605.011 332.523 C 605.009 333.565 605.78 334.412 606.733 334.414 L 621.541 334.414 C 622.496 334.413 623.27 333.567 623.27 332.523 L 623.27 316.333 C 623.27 315.289 622.496 314.443 621.541 314.443 Z" style="fill: rgb(21, 255, 0);"/>
  <path d="M 652.633 204.043 L 637.825 204.043 C 636.873 204.046 636.103 204.892 636.103 205.933 L 636.103 222.13 C 636.103 223.17 636.874 224.013 637.825 224.013 L 652.633 224.013 C 653.585 224.014 654.358 223.171 654.362 222.13 L 654.362 205.933 C 654.359 204.89 653.587 204.046 652.633 204.043 Z" fill="#e6e6e6" style=""/>
  <path d="M 652.633 231.643 L 637.825 231.643 C 636.873 231.646 636.103 232.492 636.103 233.533 L 636.103 249.73 C 636.103 250.77 636.874 251.613 637.825 251.613 L 652.633 251.613 C 653.585 251.614 654.358 250.771 654.362 249.73 L 654.362 233.533 C 654.359 232.49 653.587 231.646 652.633 231.643 Z" style="fill: rgba(21, 255, 0, 0.46);"/>
  <path d="M 652.633 259.243 L 637.825 259.243 C 636.873 259.246 636.103 260.092 636.103 261.134 L 636.103 277.323 C 636.1 278.365 636.872 279.212 637.825 279.213 L 652.633 279.213 C 653.588 279.213 654.361 278.367 654.362 277.323 L 654.362 261.134 C 654.359 260.09 653.587 259.246 652.633 259.243 Z" style="fill: rgba(21, 255, 0, 0.58);"/>
  <path d="M 652.633 286.842 L 637.825 286.842 C 636.873 286.846 636.103 287.692 636.103 288.733 L 636.103 304.923 C 636.1 305.965 636.872 306.812 637.825 306.813 L 652.633 306.813 C 653.588 306.813 654.361 305.967 654.362 304.923 L 654.362 288.733 C 654.359 287.69 653.587 286.846 652.633 286.842 Z" style="fill: rgb(21, 255, 0);"/>
  <path d="M 652.633 314.443 L 637.825 314.443 C 636.872 314.444 636.1 315.291 636.103 316.333 L 636.103 332.523 C 636.1 333.565 636.872 334.412 637.825 334.414 L 652.633 334.414 C 653.588 334.413 654.361 333.567 654.362 332.523 L 654.362 316.333 C 654.361 315.289 653.588 314.443 652.633 314.443 Z" fill="#e6e6e6" style=""/>
  <path d="M 683.725 204.043 L 668.917 204.043 C 667.965 204.046 667.194 204.892 667.195 205.933 L 667.195 222.13 C 667.195 223.17 667.966 224.013 668.917 224.013 L 683.725 224.013 C 684.677 224.014 685.45 223.171 685.453 222.13 L 685.453 205.933 C 685.451 204.89 684.678 204.046 683.725 204.043 Z" fill="#e6e6e6" style=""/>
  <path d="M 683.725 231.643 L 668.917 231.643 C 667.965 231.646 667.194 232.492 667.195 233.533 L 667.195 249.73 C 667.195 250.77 667.966 251.613 668.917 251.613 L 683.725 251.613 C 684.677 251.614 685.45 250.771 685.453 249.73 L 685.453 233.533 C 685.451 232.49 684.678 231.646 683.725 231.643 Z" fill="#e6e6e6" style=""/>
  <path d="M 683.725 259.243 L 668.917 259.243 C 667.965 259.246 667.194 260.092 667.195 261.134 L 667.195 277.323 C 667.192 278.365 667.964 279.212 668.917 279.213 L 683.725 279.213 C 684.679 279.213 685.453 278.367 685.453 277.323 L 685.453 261.134 C 685.451 260.09 684.678 259.246 683.725 259.243 Z" style="fill: rgba(21, 255, 0, 0.59);"/>
  <path d="M 683.725 286.842 L 668.917 286.842 C 667.965 286.846 667.194 287.692 667.195 288.733 L 667.195 304.923 C 667.192 305.965 667.964 306.812 668.917 306.813 L 683.725 306.813 C 684.679 306.813 685.453 305.967 685.453 304.923 L 685.453 288.733 C 685.451 287.69 684.678 286.846 683.725 286.842 Z" fill="#e6e6e6" style=""/>
  <path d="M 683.725 314.443 L 668.917 314.443 C 667.964 314.444 667.192 315.291 667.195 316.333 L 667.195 332.523 C 667.192 333.565 667.964 334.412 668.917 334.414 L 683.725 334.414 C 684.679 334.413 685.453 333.567 685.453 332.523 L 685.453 316.333 C 685.453 315.289 684.679 314.443 683.725 314.443 Z" fill="#e6e6e6" style=""/>
  <polygon points="343.39 553.135 342.977 553.135 343.33 553.084 343.39 553.135" fill="#2f2e41" style=""/>
  <circle id="b6132315-04e2-4cdb-a713-107c9cd58b0b" data-name="ab6171fa-7d69-4734-b81c-8dff60f9761b" cx="282.81438" cy="176.73277" r="68.32185" fill="#ffb6b6" style="" transform="matrix(0.664921, 0, 0, 0.727273, 119.91256, 73.097389)"/>
  <path id="f4304bdd-ba2d-4fff-b404-410205410c5d-143" data-name="bf427902-b9bf-4946-b5d7-5c1c7e04535e" d="M 347.745 165.2 C 347.745 165.2 359.627 140.355 333.487 138.097 C 333.487 138.097 311.202 115.986 288.488 134.054 C 288.488 134.054 276.098 134.054 269.323 149.389 C 269.323 149.389 259.579 145.347 257.437 156.165 C 257.437 156.165 250.307 178.751 257.437 199.078 C 264.568 219.405 266.936 221.664 266.936 221.664 C 266.936 221.664 255.22 179.047 283.739 176.788 C 312.258 174.53 344.171 155.036 346.548 179.88 C 348.924 204.724 352.501 210.846 352.501 210.846 C 352.501 210.846 375.075 175.363 347.745 165.2 Z" style="fill: rgb(51, 51, 51);"/>
  <path d="M 425.476 324.086 L 425.33 324.93 L 423.687 334.413 L 412.337 400.013 L 411.666 403.875 L 410.256 412.043 L 408.328 423.184 L 404.052 447.875 L 402.829 454.952 L 402.37 457.606 L 402.21 458.537 L 400.94 465.861 L 400.555 468.072 L 397.456 493.184 L 394.75 515.068 L 403.806 524.973 L 398.407 530.879 L 394.863 553.083 L 394.87 553.133 L 250.23 553.133 C 244.378 548.988 238.611 544.714 232.928 540.312 L 234.119 530.566 C 234.119 530.566 238.214 513.163 236.492 511.083 C 234.777 509.003 231.013 505.286 231.013 505.286 L 235.754 493.184 L 236.412 491.504 L 235.309 466.464 L 235.282 465.861 L 234.916 457.606 L 234.87 456.544 L 234.797 454.952 L 233.394 423.184 L 233.367 422.661 L 232.942 413.032 L 232.543 403.875 L 232.37 400.013 L 230.661 361.373 L 229.504 335.133 L 228.493 312.29 L 232.556 310.784 L 276.009 294.632 L 294.008 269.039 L 331.47 269.344 L 349.808 269.497 L 380.408 300.537 L 387.37 304.173 L 387.423 304.202 L 392.416 306.813 L 405.076 313.424 L 418.461 320.421 L 425.33 324.006 Z" style="fill: rgb(96, 96, 96);"/>
  <path d="M 298.849 478.589 C 287.159 483.543 274.216 475.734 271.811 462.276 L 200.958 451.281 L 225.588 420.807 L 289.095 435.92 C 304.556 433.763 316.354 450.721 310.332 466.444 C 308.188 472.043 304.037 476.433 298.849 478.589 Z" fill="#ffb6b6" style=""/>
  <path d="M 267.258 423.184 C 265.946 421.364 264.088 420.11 262.012 419.643 L 232.942 413.032 L 229.956 412.355 C 226.447 411.554 223.416 409.155 221.625 405.759 C 220.706 403.996 220.15 402.035 219.996 400.013 C 219.857 398.175 220.058 396.325 220.587 394.573 L 230.661 361.373 L 237.197 339.832 C 237.989 337.234 238.457 334.53 238.587 331.795 C 238.951 324.226 236.81 316.767 232.556 310.784 C 224.877 299.987 211.643 295.958 199.968 300.864 C 199.802 300.93 199.629 301.003 199.463 301.075 C 191.195 304.686 184.962 312.339 182.634 321.737 L 175.532 349.992 L 160.884 408.239 C 154.651 433.044 170.08 458.095 193.439 461.097 L 235.309 466.464 L 254.684 468.952 C 259.331 469.562 263.626 466.165 264.552 461.148 C 264.583 461.016 264.608 460.883 264.625 460.748 L 265.09 457.606 L 269.033 431.148 L 269.073 430.879 C 269.489 428.149 268.829 425.354 267.258 423.184 Z" style="fill: rgb(96, 96, 96);"/>
  <path d="M 343.98 479.437 C 356.192 482.538 367.998 472.811 368.645 459.117 L 437.372 437.303 L 409.059 410.933 L 348.135 435.69 C 332.55 435.939 323.056 454.547 331.046 469.185 C 333.89 474.397 338.566 478.103 343.98 479.437 Z" fill="#ffb6b6" style=""/>
  <path d="M 471.495 388.508 L 438.808 306.224 C 436.134 299.469 431.359 293.968 425.33 290.697 C 423.466 289.694 421.509 288.913 419.492 288.37 C 419.179 288.283 418.867 288.203 418.554 288.137 C 414.277 287.116 409.841 287.206 405.602 288.399 C 397.764 290.601 391.153 296.348 387.423 304.203 C 387.402 304.235 387.385 304.269 387.369 304.304 C 383.191 313.146 383.1 323.632 387.123 332.559 L 387.529 333.446 L 410.628 384.188 C 413.972 391.543 410.71 400.443 403.647 403.235 L 402.024 403.875 L 372.848 415.403 C 368.297 417.179 365.849 422.576 367.309 427.613 L 367.382 427.868 L 375.56 456.493 C 375.6 456.624 375.64 456.755 375.687 456.886 C 375.759 457.133 375.848 457.374 375.953 457.606 C 377.748 462.011 382.206 464.333 386.465 463.082 L 402.21 458.537 L 405.422 457.606 L 446.082 445.861 C 468.822 439.288 480.868 412.104 471.495 388.508 Z" style="fill: rgb(96, 96, 96);"/>
  <path d="M 149.767 457.606 C 159.189 470.176 169.35 482.061 180.187 493.184 L 480.711 493.184 C 486.74 493.195 491.623 498.54 491.629 505.133 L 492.061 588.428 C 510.549 579.137 527.863 567.275 543.573 553.133 C 547.935 549.213 552.161 545.124 556.253 540.864 C 558.932 538.086 561.548 535.24 564.099 532.326 C 583.224 510.534 598.712 485.245 609.859 457.606 Z" style="fill: rgb(17, 17, 17);"/>
  <path d="M 564.099 532.326 C 561.552 535.243 558.937 538.089 556.253 540.864 L 492.281 540.864 L 492.281 532.326 Z" style="fill: rgb(173, 173, 173);"/>
  <path d="M 424.878 259.243 C 424.234 257.943 422.991 257.133 421.639 257.134 L 203.652 257.134 C 201.617 257.139 199.97 258.944 199.968 261.17 L 199.968 403.875 L 425.33 403.875 L 425.33 261.17 C 425.333 260.496 425.177 259.832 424.878 259.243 Z" style="fill: rgb(67, 67, 74);"/>
  <path d="M 199.771 400.012 L 199.771 417.622 C 199.771 420.692 202.046 423.181 204.853 423.181 L 288.033 423.181 L 288.033 457.935 L 286.928 457.935 C 286.563 457.935 286.267 458.258 286.267 458.657 L 286.267 461.074 C 286.267 461.473 286.563 461.796 286.928 461.796 L 338.564 461.796 C 338.929 461.796 339.225 461.473 339.225 461.074 L 339.225 458.657 C 339.225 458.258 338.929 457.935 338.564 457.935 L 337.459 457.935 L 337.459 423.181 L 420.639 423.181 C 423.446 423.181 425.721 420.692 425.721 417.622 L 425.721 400.012 Z" style="fill: rgb(43, 43, 49);"/>
  <circle cx="285.90293" cy="348.70373" r="31.30642" style="fill: rgb(160, 160, 160);" transform="matrix(0.664921, 0, 0, 0.727273, 119.91256, 73.097389)"/>
  <path d="M 363.053 198.915 L 359.729 198.915 C 359.729 171.424 334.854 153.41 309.76 153.395 C 306.11 153.384 302.468 153.771 298.888 154.552 C 294.859 155.432 290.677 156.486 286.567 157.861 C 270.363 163.293 255.336 173.795 255.336 198.915 C 255.333 203.794 255.9 208.653 257.025 213.373 L 253.807 214.29 C 252.613 209.269 252.01 204.103 252.012 198.915 C 252.012 176.966 260.25 161.89 274.479 152.901 C 281.96 148.173 291.089 145.126 301.548 143.643 C 305.901 143.009 310.301 142.863 314.68 143.206 C 343.538 145.475 363.053 169.679 363.053 198.915 Z" style="fill: rgb(134, 131, 179);"/>
  <path d="M 368.592 200.93 L 367.282 190.341 C 366.959 187.667 365.781 185.204 363.958 183.388 C 361.585 180.99 358.337 179.917 355.147 180.479 L 353.066 180.792 C 351.916 180.957 350.874 181.62 350.174 182.632 C 349.467 183.64 349.159 184.915 349.316 186.173 L 352.341 210.566 C 352.597 212.605 354.016 214.237 355.866 214.617 C 356.133 214.676 356.404 214.705 356.677 214.704 C 356.872 214.704 357.068 214.69 357.262 214.661 L 359.589 214.319 C 362.457 213.903 365.04 212.211 366.73 209.643 C 366.91 209.366 367.083 209.083 367.242 208.792 C 368.489 206.412 368.964 203.642 368.592 200.93 Z" style="fill: rgb(145, 142, 194);"/>
  <path d="M 351.723 181.235 C 351.113 181.56 350.582 182.038 350.174 182.632 C 349.467 183.64 349.159 184.915 349.316 186.173 L 352.341 210.566 C 352.597 212.605 354.016 214.237 355.866 214.617 Z" fill="#fff" style=""/>
  <path d="M 368.592 200.93 L 367.282 190.341 C 366.959 187.667 365.781 185.204 363.958 183.388 L 366.97 207.657 C 367.015 208.047 367.106 208.428 367.242 208.792 C 368.489 206.412 368.964 203.642 368.592 200.93 Z" fill="#3f3d56" style=""/>
  <ellipse cx="532.218" cy="258.909" rx="1.665" ry="5.082" transform="matrix(0.98917, -0.146773, 0.12312, 0.99268, -200.71817, 24.616007)" fill="#3f3d56" style=""/>
  <ellipse cx="529.218" cy="240.909" rx="1.665" ry="5.082" transform="matrix(0.98917, -0.146773, 0.12312, 0.99268, -197.529236, 28.953028)" fill="#3f3d56" style=""/>
  <ellipse cx="548.218" cy="247.909" rx="1.665" ry="5.082" transform="matrix(0.98917, -0.146773, 0.12312, 0.99268, -204.551849, 29.88386)" fill="#3f3d56" style=""/>
  <path d="M 309.76 153.395 C 306.11 153.384 302.468 153.771 298.888 154.552 C 294.859 155.432 290.677 156.486 286.567 157.861 C 280.151 157.519 275.43 155.701 274.479 152.901 C 281.96 148.173 291.089 145.126 301.548 143.643 C 305.901 143.009 310.301 142.863 314.68 143.206 C 315.618 143.807 316.276 144.818 316.489 145.984 C 316.801 148.515 314.162 151.206 309.76 153.395 Z" fill="#3f3d56" style=""/>
  <path d="M 267.311 224.152 L 262.191 200.872 C 261.818 199.154 260.539 197.85 258.947 197.563 C 258.727 197.525 258.504 197.506 258.282 197.504 C 257.968 197.506 257.656 197.547 257.351 197.628 L 255.369 198.152 C 250.057 199.557 246.788 205.4 248.062 211.213 L 250.356 221.657 C 250.88 224.116 252.127 226.318 253.907 227.926 C 254.195 228.181 254.497 228.416 254.811 228.632 C 257.063 230.175 259.789 230.658 262.371 229.97 L 264.346 229.446 C 264.868 229.313 265.359 229.063 265.789 228.712 C 267.095 227.67 267.696 225.869 267.311 224.152 Z" style="fill: rgb(145, 142, 194);"/>
  <ellipse cx="378.629" cy="274.523" rx="1.671" ry="5.064" transform="matrix(0.967063, -0.254538, 0.215051, 0.977456, -169.705704, 42.911732)" style="" fill="#3f3d56"/>
  <ellipse cx="368.629" cy="277.523" rx="1.671" ry="5.064" transform="matrix(0.967063, -0.254538, 0.215051, 0.977456, -167.329453, 39.615803)" fill="#3f3d56" style=""/>
  <path d="M 267.637 224.064 L 262.517 200.784 C 262.109 198.926 260.724 197.517 259 197.206 L 265.988 229.003 C 267.399 227.872 268.05 225.924 267.637 224.064 Z" fill="#fff" style=""/>
  <path d="M 249.219 206.603 C 249.078 205.955 248.812 205.348 248.441 204.821 C 247.721 206.859 247.589 209.09 248.062 211.213 L 250.356 221.657 C 250.88 224.116 252.127 226.318 253.907 227.926 Z" fill="#3f3d56" style=""/>
</svg>